<?xml version="1.0" standalone="no"?>
<!DOCTYPE svg PUBLIC "-//W3C//DTD SVG 20010904//EN"
 "http://www.w3.org/TR/2001/REC-SVG-20010904/DTD/svg10.dtd">
<svg version="1.0" xmlns="http://www.w3.org/2000/svg"
 width="512.000000pt" height="512.000000pt" viewBox="0 0 512.000000 512.000000"
 preserveAspectRatio="xMidYMid meet">

<g transform="translate(0.000000,512.000000) scale(0.100000,-0.100000)"
fill="#000000" stroke="none">
<path d="M2495 3986 c-37 -17 -70 -52 -84 -89 -6 -16 -11 -103 -11 -202 l0
-175 -669 -2 c-658 -3 -670 -3 -697 -24 -15 -11 -37 -33 -48 -48 -20 -27 -21
-39 -21 -406 0 -367 1 -379 21 -406 51 -68 51 -69 323 -74 l248 -5 421 -280
421 -280 3 -387 c3 -372 4 -388 24 -414 39 -53 71 -69 134 -69 63 0 95 16 134
69 20 26 21 42 24 414 l3 387 421 280 421 280 248 5 c272 5 272 6 323 74 20
27 21 39 21 406 0 367 -1 379 -21 406 -11 15 -33 37 -48 48 -27 21 -39 21
-696 24 l-669 2 -3 190 c-3 206 -6 215 -70 263 -34 25 -113 32 -153 13z"/>
<path d="M415 3826 c-41 -18 -83 -69 -90 -109 -3 -18 -5 -406 -3 -864 3 -822
3 -832 24 -859 48 -65 60 -69 244 -72 l169 -3 -214 -286 c-143 -191 -217 -297
-221 -319 -21 -110 68 -206 178 -191 21 3 50 13 64 22 40 26 531 688 545 735
l12 40 186 -2 185 -3 143 -360 c120 -300 150 -365 178 -392 98 -93 265 -20
265 117 0 39 -335 878 -363 909 -47 51 -51 51 -581 51 l-496 0 -2 749 c-3 739
-3 750 -24 777 -11 15 -32 37 -46 47 -33 25 -113 32 -153 13z"/>
<path d="M4575 3826 c-37 -17 -70 -52 -84 -89 -8 -19 -11 -267 -11 -763 l0
-734 -495 0 c-531 0 -535 0 -582 -51 -28 -31 -363 -870 -363 -909 0 -137 167
-210 265 -117 28 27 58 92 178 392 l143 360 185 3 186 2 12 -40 c14 -47 505
-709 545 -735 14 -9 43 -19 64 -22 110 -15 199 81 178 191 -4 22 -78 128 -221
319 l-214 286 169 3 c184 3 196 7 244 72 21 27 21 34 21 886 0 852 0 859 -21
886 -11 15 -32 37 -46 47 -34 25 -113 32 -153 13z"/>
</g>
</svg>
