<?xml version="1.0" standalone="no"?>
<!DOCTYPE svg PUBLIC "-//W3C//DTD SVG 20010904//EN"
 "http://www.w3.org/TR/2001/REC-SVG-20010904/DTD/svg10.dtd">
<svg version="1.0" xmlns="http://www.w3.org/2000/svg"
 width="512.000000pt" height="512.000000pt" viewBox="0 0 512.000000 512.000000"
 preserveAspectRatio="xMidYMid meet">

<g transform="translate(0.000000,512.000000) scale(0.100000,-0.100000)"
fill="#000000" stroke="none">
<path d="M25 4295 c-14 -13 -25 -33 -25 -45 0 -11 36 -486 80 -1055 l80 -1034
-80 -639 c-44 -351 -80 -646 -80 -656 0 -9 11 -28 25 -41 23 -24 28 -25 173
-25 130 0 153 2 172 18 21 17 35 82 139 638 l116 619 142 3 c139 2 144 2 182
-23 46 -31 120 -55 167 -55 30 0 34 -3 40 -37 166 -901 212 -1127 234 -1145
19 -16 42 -18 172 -18 145 0 150 1 173 25 14 13 25 30 25 37 0 7 -32 271 -71
586 -39 315 -70 574 -68 577 2 2 29 -3 59 -11 73 -19 110 -18 180 6 l60 20 60
-20 c75 -25 124 -25 202 1 59 19 65 19 101 4 l37 -15 0 -370 c0 -306 -2 -370
-14 -370 -32 0 -156 -73 -196 -116 -57 -62 -99 -155 -107 -237 -5 -61 -4 -67
20 -91 l26 -26 511 0 511 0 26 26 c24 24 25 30 20 91 -8 82 -50 175 -107 237
-40 43 -164 116 -196 116 -12 0 -14 64 -14 370 l0 370 38 15 c35 15 41 15 100
-4 78 -26 127 -26 202 -1 l60 20 60 -20 c70 -24 107 -25 180 -6 30 8 57 13 59
11 2 -3 -29 -262 -68 -577 -39 -315 -71 -579 -71 -586 0 -7 11 -24 25 -37 23
-24 28 -25 173 -25 130 0 153 2 172 18 22 18 68 244 234 1145 6 34 10 37 40
37 47 0 121 24 167 55 38 25 43 25 182 23 l142 -3 116 -619 c104 -556 118
-621 139 -638 19 -16 42 -18 172 -18 145 0 150 1 173 25 14 13 25 31 25 38 0
8 -36 304 -80 658 l-80 644 40 512 c53 676 51 629 17 659 -35 30 -68 31 -102
1 l-27 -22 -41 -538 -41 -537 -249 0 -249 0 6 31 c3 17 6 53 6 80 l0 49 144 0
c137 0 146 1 172 23 l26 23 59 764 c57 742 60 767 85 818 26 53 67 92 117 111
33 13 33 40 7 -290 -18 -216 -19 -264 -8 -286 24 -51 102 -56 132 -10 11 16
22 115 40 349 15 180 26 337 26 348 0 12 -11 32 -25 45 -19 20 -34 25 -72 25
-64 0 -154 -24 -208 -55 -59 -35 -132 -115 -160 -178 -32 -70 -37 -109 -81
-699 l-38 -508 -108 0 -108 0 0 216 c0 139 -4 231 -12 256 -6 22 -31 62 -55
88 -72 80 -72 80 -553 80 l-417 0 -7 60 c-27 234 -199 429 -427 483 -37 9 -49
16 -49 31 0 110 -123 226 -240 226 -117 0 -240 -116 -240 -226 0 -15 -12 -22
-52 -31 -130 -31 -280 -140 -345 -250 -38 -66 -71 -161 -79 -232 l-7 -61 -415
0 c-296 0 -426 -3 -456 -12 -55 -16 -138 -99 -154 -154 -8 -27 -12 -117 -12
-258 l0 -216 -108 0 -108 0 -38 508 c-44 590 -49 629 -81 699 -28 63 -101 143
-160 178 -54 31 -144 55 -208 55 -38 0 -53 -5 -72 -25z m2590 -160 c45 -44 35
-55 -55 -55 -65 0 -80 3 -80 15 0 27 47 65 80 65 19 0 40 -9 55 -25z m-2358
-31 c17 -13 43 -47 57 -76 25 -51 28 -76 85 -818 l59 -764 26 -23 c26 -22 35
-23 172 -23 l144 0 0 -49 c0 -27 3 -63 6 -80 l6 -31 -249 0 -249 0 -72 948
c-40 521 -73 950 -72 954 0 12 51 -11 87 -38z m2635 -226 c47 -24 91 -55 117
-84 52 -55 98 -151 107 -221 l7 -53 -563 0 -563 0 7 53 c9 69 55 165 105 220
44 48 134 101 197 116 22 5 145 9 275 8 l235 -2 76 -37z m1243 -543 l25 -24 0
-505 c0 -332 -4 -514 -11 -533 -31 -84 -127 -132 -203 -103 l-26 10 0 205 c0
205 0 206 -25 230 -15 16 -36 25 -55 25 -19 0 -40 -9 -55 -25 -25 -24 -25 -25
-25 -230 l0 -205 -27 -11 c-41 -16 -105 -5 -149 25 -49 33 -79 33 -128 0 -44
-30 -108 -41 -148 -25 l-28 11 0 125 c0 120 -1 127 -25 150 -15 16 -36 25 -55
25 -19 0 -40 -9 -55 -25 -24 -23 -25 -30 -25 -150 l0 -125 -27 -11 c-41 -16
-105 -5 -149 25 -49 33 -79 33 -128 0 -44 -30 -108 -41 -148 -25 l-28 11 0
205 c0 205 0 206 -25 230 -32 33 -78 33 -110 0 -25 -24 -25 -25 -25 -230 l0
-205 -27 -11 c-41 -16 -105 -5 -149 25 -49 33 -79 33 -128 0 -44 -30 -108 -41
-148 -25 l-28 11 0 125 c0 120 -1 127 -25 150 -32 33 -78 33 -110 0 -24 -23
-25 -30 -25 -150 l0 -125 -27 -11 c-41 -16 -105 -5 -149 25 -49 33 -79 33
-128 0 -44 -30 -108 -41 -148 -25 l-28 11 0 205 c0 205 0 206 -25 230 -15 16
-36 25 -55 25 -19 0 -40 -9 -55 -25 -25 -24 -25 -25 -25 -228 l0 -204 -25 -11
c-73 -33 -172 16 -204 101 -7 19 -11 201 -11 533 l0 505 25 24 24 25 1551 0
1551 0 24 -25z m-3335 -695 l0 -80 -94 0 -93 0 -7 46 c-3 26 -6 62 -6 80 l0
34 100 0 100 0 0 -80z m3720 46 c0 -18 -3 -54 -6 -80 l-7 -46 -93 0 -94 0 0
80 0 80 100 0 100 0 0 -34z m-4061 -623 c0 -10 -46 -261 -102 -558 l-102 -540
-43 -3 -43 -3 6 33 c5 31 135 1071 135 1082 0 3 34 6 75 6 65 0 75 -2 74 -17z
m4351 11 c0 -11 130 -1051 135 -1082 l6 -33 -43 3 -43 3 -102 540 c-56 297
-102 548 -102 558 -1 15 9 17 74 17 41 0 75 -3 75 -6z m-2206 -49 l36 -15 0
-365 0 -365 -80 0 -80 0 0 365 0 365 33 14 c42 19 48 19 91 1z m-1167 -25 c13
0 23 -3 23 -6 0 -11 120 -970 125 -1002 l6 -33 -43 3 -43 3 -97 515 c-53 283
-97 522 -97 531 -1 14 4 15 51 3 29 -8 63 -14 75 -14z m2275 -520 l-97 -515
-43 -3 -43 -3 6 33 c3 18 30 236 60 483 70 576 61 525 93 526 15 0 47 6 72 12
38 10 45 10 47 -3 1 -8 -41 -247 -95 -530z m-918 -372 c45 -13 146 -105 146
-132 0 -14 -42 -16 -380 -16 -338 0 -380 2 -380 16 0 24 101 119 140 131 50
16 421 16 474 1z"/>
</g>
</svg>
