<?xml version="1.0" standalone="no"?>
<!DOCTYPE svg PUBLIC "-//W3C//DTD SVG 20010904//EN"
 "http://www.w3.org/TR/2001/REC-SVG-20010904/DTD/svg10.dtd">
<svg version="1.0" xmlns="http://www.w3.org/2000/svg"
 width="512.000000pt" height="512.000000pt" viewBox="0 0 512.000000 512.000000"
 preserveAspectRatio="xMidYMid meet">

<g transform="translate(0.000000,512.000000) scale(0.100000,-0.100000)"
fill="#000000" stroke="none">
<path d="M25 4393 c-11 -11 -15 -27 -12 -47 2 -17 62 -515 132 -1106 82 -691
133 -1083 142 -1097 13 -22 18 -23 184 -23 133 0 170 -3 166 -12 -2 -7 -100
-302 -216 -655 l-212 -643 -77 0 c-47 0 -83 -5 -90 -12 -16 -16 -15 -63 1 -77
22 -18 4995 15 5040 34 26 11 33 52 12 75 -15 17 -31 20 -109 20 l-91 0 -204
623 c-112 342 -206 628 -209 634 -3 10 34 13 166 13 137 0 172 3 182 15 7 9
65 455 145 1122 118 984 131 1111 119 1131 -17 26 -55 29 -78 6 -9 -8 -16 -31
-16 -50 l0 -35 -82 8 c-119 12 -170 9 -201 -12 -64 -42 -62 -31 -164 -712 -86
-571 -96 -653 -97 -783 l-1 -146 38 -76 c46 -93 100 -151 196 -208 69 -41 73
-45 67 -73 -3 -16 -6 -42 -6 -58 l0 -28 -197 2 c-358 4 -1367 -15 -1380 -26
-18 -13 -16 -62 2 -77 11 -9 78 -14 235 -18 121 -3 220 -5 220 -6 0 0 -94
-284 -208 -631 l-208 -630 -174 0 -175 0 -27 925 c-15 509 -26 979 -25 1045
l2 120 70 2 c277 9 742 48 932 78 165 27 251 73 292 158 50 104 6 208 -116
268 -48 24 -49 24 -453 27 -223 1 -862 -2 -1420 -6 -1123 -10 -1072 -6 -1162
-75 -136 -104 -144 -261 -19 -352 94 -69 147 -74 936 -96 248 -6 452 -13 454
-15 3 -3 60 -1876 61 -2016 l0 -68 -243 0 -242 0 -204 623 c-113 342 -206 627
-208 633 -3 8 61 13 216 16 158 4 225 9 236 18 18 15 20 64 3 77 -14 11 -1023
30 -1380 26 -198 -2 -198 -2 -198 20 0 12 -3 38 -6 58 -6 35 -5 36 63 76 125
75 207 184 234 313 19 90 5 220 -95 893 -69 464 -100 647 -113 670 -10 18 -39
42 -63 55 -47 24 -52 24 -217 6 l-53 -6 0 29 c0 61 -57 95 -95 56z m3932
-1060 c79 -43 92 -90 42 -148 -52 -59 -163 -82 -569 -119 -448 -41 -1094 -51
-1810 -27 -547 18 -606 28 -653 108 -25 43 -16 81 30 127 74 73 25 70 1108 76
534 3 1159 6 1390 5 415 0 420 0 462 -22z m-3519 -116 c6 -7 23 -70 37 -139
49 -243 24 -429 -73 -548 -19 -23 -22 -24 -38 -8 -16 16 -15 19 14 65 52 83
67 144 67 278 0 88 -7 149 -24 227 -22 102 -23 138 -3 138 5 0 14 -6 20 -13z
m4260 -139 c7 -9 2 -38 -15 -93 -49 -162 -40 -291 28 -377 16 -20 29 -44 29
-52 0 -25 -34 -19 -63 12 -76 80 -96 228 -53 396 31 119 48 145 74 114z
m-3356 -974 l38 -6 39 -121 c21 -67 114 -351 206 -630 92 -279 165 -510 162
-513 -4 -5 -1455 -23 -1464 -19 -1 0 95 295 213 654 l215 653 277 -6 c152 -4
294 -9 314 -12z m3196 -501 c234 -712 244 -744 237 -751 -7 -7 -1437 -22
-1444 -16 -5 5 398 1236 411 1257 7 12 168 20 500 25 l126 2 170 -517z"/>
<path d="M1213 3290 c-54 -11 -80 -25 -120 -63 -33 -30 -43 -70 -23 -82 6 -4
30 13 53 38 30 32 53 47 80 52 22 4 186 3 365 -4 316 -11 744 -3 772 14 6 4
10 14 8 22 -3 13 -68 15 -503 18 -275 1 -520 5 -545 8 -25 3 -64 2 -87 -3z"/>
</g>
</svg>
